<svg width="24" height="21" viewBox="0 0 24 21" fill="none" xmlns="http://www.w3.org/2000/svg">
<path d="M2 7.50001C2.82791 8.90746 3.27921 9.66805 4.31983 10.6918M22 7.50001C21.1006 8.95284 20.6438 9.69772 19.6494 10.6878M4.5 4.00001C8.5 0.500004 14.5 0 19 3.53136M1 14.0317C1 14.0317 3.02335 11.9961 4.31983 10.6918M4.31983 10.6918C5.40922 11.7636 6.59651 12.6102 7.84263 13.2004M5.5 17.5317L7.84263 13.2004M7.84263 13.2004C9.17695 13.8323 10.5787 14.1703 12 14.1759M12 14.1759V19.0317M12 14.1759C13.3294 14.1812 14.6758 13.8956 16 13.288M18 17.5317L16 13.288M16 13.288C17.2471 12.7157 18.4745 11.8577 19.6494 10.6878M23 14.1759L19.6494 10.6878" stroke="#213E98" stroke-width="2" stroke-linecap="round"/>
</svg>
